<svg id="Component_4_1" data-name="Component 4 – 1" xmlns="http://www.w3.org/2000/svg" xmlns:xlink="http://www.w3.org/1999/xlink" width="124" height="124" viewBox="0 0 124 124">
  <defs>
    <clipPath id="clip-path">
      <rect id="Rectangle_62" data-name="Rectangle 62" width="110.001" height="110" fill="none"/>
    </clipPath>
  </defs>
  <g id="Component_3_1" data-name="Component 3 – 1">
    <circle id="Ellipse_14" data-name="Ellipse 14" cx="62" cy="62" r="62" fill="#fff"/>
  </g>
  <g id="Group_7" data-name="Group 7" transform="translate(7 7)">
    <g id="Group_105" data-name="Group 105">
      <g id="Group_104" data-name="Group 104" clip-path="url(#clip-path)">
        <path id="Path_456" data-name="Path 456" d="M55,108.35A53.348,53.348,0,1,0,1.652,55,53.349,53.349,0,0,0,55,108.35" fill="#fff"/>
        <circle id="Ellipse_1" data-name="Ellipse 1" cx="53.348" cy="53.348" r="53.348" transform="translate(1.652 1.653)" fill="none" stroke="#fff" stroke-width="0.955"/>
        <path id="Path_457" data-name="Path 457" d="M55,109.054A54.056,54.056,0,1,0,16.779,93.222,54.055,54.055,0,0,0,55,109.054M2.356,55A52.644,52.644,0,1,1,17.775,92.226,52.643,52.643,0,0,1,2.356,55" fill="#ed2823"/>
        <path id="Path_458" data-name="Path 458" d="M55,109.054A54.056,54.056,0,1,0,16.779,93.222,54.055,54.055,0,0,0,55,109.054M2.356,55A52.644,52.644,0,1,1,17.775,92.226,52.643,52.643,0,0,1,2.356,55" fill="none" stroke="#ed2823" stroke-width="0.955"/>
        <rect id="Rectangle_10" data-name="Rectangle 10" width="20.131" height="20.132" transform="translate(44.935 65.066)" fill="#ed2823"/>
        <rect id="Rectangle_11" data-name="Rectangle 11" width="20.131" height="20.132" transform="translate(44.935 65.066)" fill="none" stroke="#ed2823" stroke-width="0.955"/>
        <rect id="Rectangle_12" data-name="Rectangle 12" width="20.131" height="20.131" transform="translate(44.935 44.936)" fill="#ed2823"/>
        <rect id="Rectangle_13" data-name="Rectangle 13" width="20.131" height="20.131" transform="translate(44.935 44.936)" fill="none" stroke="#ed2823" stroke-width="0.955"/>
        <rect id="Rectangle_14" data-name="Rectangle 14" width="20.131" height="20.132" transform="translate(44.935 24.804)" fill="#ed2823"/>
        <rect id="Rectangle_15" data-name="Rectangle 15" width="20.131" height="20.132" transform="translate(44.935 24.804)" fill="none" stroke="#ed2823" stroke-width="0.955"/>
        <rect id="Rectangle_16" data-name="Rectangle 16" width="20.131" height="20.131" transform="translate(65.066 44.935)" fill="#ed2823"/>
        <rect id="Rectangle_17" data-name="Rectangle 17" width="20.131" height="20.131" transform="translate(65.066 44.935)" fill="none" stroke="#ed2823" stroke-width="0.955"/>
        <rect id="Rectangle_18" data-name="Rectangle 18" width="20.132" height="20.131" transform="translate(24.803 44.935)" fill="#ed2823"/>
        <rect id="Rectangle_19" data-name="Rectangle 19" width="20.132" height="20.131" transform="translate(24.803 44.935)" fill="none" stroke="#ed2823" stroke-width="0.955"/>
        <path id="Path_459" data-name="Path 459" d="M55,93.955a38.956,38.956,0,1,0-27.544-11.41A38.956,38.956,0,0,0,55,93.955M17.455,55a37.544,37.544,0,1,1,11,26.548A37.544,37.544,0,0,1,17.455,55" fill="#ed2823"/>
        <path id="Path_460" data-name="Path 460" d="M55,93.955a38.956,38.956,0,1,0-27.544-11.41A38.956,38.956,0,0,0,55,93.955M17.455,55a37.544,37.544,0,1,1,11,26.548A37.544,37.544,0,0,1,17.455,55" fill="none" stroke="#ed2823" stroke-width="0.955"/>
        <path id="Path_461" data-name="Path 461" d="M30.336,90.715l4.144,2.509,1.094-1.807L37.8,92.765l-4.4,7.26-5.573-3.374a4.961,4.961,0,0,1-1.746-1.467c-.531-.881-.341-1.8.421-3.061,1.179-1.947,2.22-2.382,3.828-1.408M29,94.891l3.265,1.977,1.113-1.838-3.265-1.977c-.619-.375-.968-.2-1.4.5-.351.579-.284.988.285,1.333"/>
        <path id="Path_463" data-name="Path 463" d="M21.177,79.857c.862.155,1.636.886,2.686,2.014l2.067,2.223c1.034,1.112,1.714,1.93,1.813,2.825a2.828,2.828,0,0,1-1.219,2.392l-1.693,1.575c-.957.889-1.724,1.3-2.586,1.144-.845-.155-1.62-.868-2.678-2.006l-2.074-2.231c-1.057-1.137-1.729-1.979-1.814-2.825a2.979,2.979,0,0,1,1.261-2.416l1.736-1.614a2.96,2.96,0,0,1,2.5-1.081m-2.021,4.222c-1.009.938-.759,1.566.361,2.772l1.129,1.214c1.145,1.231,1.721,1.509,2.773.53l.864-.8c.983-.914.734-1.559-.387-2.765l-1.121-1.2c-1.121-1.206-1.73-1.5-2.738-.563l-.881.819"/>
        <path id="Path_465" data-name="Path 465" d="M20.431,77.74l-7.473,4.022L11.73,79.48l5.663-3.048-2.677-4.975,1.809-.973Z"/>
        <path id="Path_467" data-name="Path 467" d="M13.672,60.875a5.238,5.238,0,0,1,1.036,2.449l.84,3.352c.639,2.548.481,3.55-1.32,4-.09.022-.32.068-.665.131l-.622-2.481.148-.036c.679-.171.716-.5.5-1.377L12.8,63.754c-.151-.6-.4-.815-.9-.69-.6.15-.591.569-.41,1.39l.867,3.984c.423,1.928.067,2.667-1.825,3.141a2.643,2.643,0,0,1-2.069-.1c-.728-.455-1.012-1.347-1.344-2.672l-.962-3.839c-.469-1.868-.05-2.84,1.535-3.237.136-.034.3-.063.459-.091l.607,2.423-.034.009a.747.747,0,0,0-.663.821.732.732,0,0,0,.055.21l.727,2.9c.2.782.366,1.172.944,1.027.509-.128.583-.459.432-1.156L9.281,63.72c-.429-1.9.1-2.758,2.028-3.241a2.222,2.222,0,0,1,2.362.4"/>
        <path id="Path_469" data-name="Path 469" d="M13.88,51.372l-3.318,3.749-.031,1.085,3.21.091-.073,2.591-8.485-.24.073-2.592,3.151.09.031-1.085L5.383,51.576l.1-3.443,4.06,4.705,4.442-5.072Z"/>
        <rect id="Rectangle_20" data-name="Rectangle 20" width="2.592" height="8.488" transform="translate(6.197 45.508) rotate(-77.538)"/>
        <path id="Path_471" data-name="Path 471" d="M25.426,25.265a5.431,5.431,0,0,1-1.518,2.809L22.1,30.333A4.726,4.726,0,0,1,19.713,32.3a2.85,2.85,0,0,1-2.554-.79l-1.8-1.446c-1.985-1.592-1.856-2.91-.045-5.169l1.811-2.259c.927-1.157,1.61-1.9,2.371-2.079a2.5,2.5,0,0,1,2.156.726c.118.1.246.2.366.309L20.389,23.62l-.064-.051c-.528-.424-1.017-.262-1.6.467l-1.3,1.621c-1.052,1.311-1.134,1.769,0,2.675l.92.738c1.039.832,1.606.554,2.555-.63l.942-1.175c.9-1.12,1.138-1.661.346-2.3l-.073-.058,1.643-2.05c.181.13.343.245.5.369a2.476,2.476,0,0,1,1.179,2.038"/>
        <path id="Path_473" data-name="Path 473" d="M26.719,24.625,25.5,22.951l2.32-7.083L23.108,19.3,21.9,17.641l7.773-5.67,1.211,1.661-2.292,7.062,4.971-3.627,1.225,1.679Z"/>
        <path id="Path_475" data-name="Path 475" d="M35.447,18.431,32.3,10.553l8.6-3.442.767,1.918-6.2,2.48L35.94,12.7l5.841-2.336.663,1.658L36.6,14.36l.481,1.2,6.3-2.518.763,1.907Z"/>
        <path id="Path_477" data-name="Path 477" d="M53.574,10.306a1.538,1.538,0,0,1,1.52,1.445l.2,1.728-2.574.3-.15-1.287c-.084-.719-.414-.833-1.261-.735l-3.838.446.25,2.157-2.585.3-.981-8.43,6.772-.788c2.551-.3,3.522.166,3.776,2.358.162,1.391-.1,2.127-1.131,2.505M51.078,7.551l-4.093.476.24,2.064,4.093-.476c.719-.084.891-.421.8-1.221-.076-.65-.377-.92-1.038-.843"/>
        <path id="Path_479" data-name="Path 479" d="M67.991,15.558l-2.862-.568-.786-6.117-3.1,5.348-2.908-.577-1.006-8.85,2.53.5.543,6.259,3.3-5.5,2.336.463.841,6.319,3.005-5.556,2.53.5Z"/>
        <path id="Path_481" data-name="Path 481" d="M79.852,21.168c-.869.108-1.826-.358-3.164-1.122L74.052,18.54c-1.318-.753-2.212-1.331-2.573-2.156a2.825,2.825,0,0,1,.45-2.648l1.147-2.007c.649-1.135,1.258-1.755,2.127-1.864.853-.1,1.806.346,3.155,1.117L81,12.493c1.348.77,2.241,1.374,2.573,2.156a2.982,2.982,0,0,1-.483,2.682l-1.176,2.058c-.625,1.1-1.248,1.667-2.065,1.779m.67-4.634c.684-1.2.258-1.721-1.171-2.538l-1.44-.822c-1.46-.834-2.093-.927-2.805.32l-.585,1.024c-.666,1.166-.236,1.708,1.194,2.524l1.429.817c1.429.817,2.1.917,2.782-.279l.6-1.045"/>
        <path id="Path_483" data-name="Path 483" d="M86.413,28.26l1.024-7.939-4.506,4.225-1.773-1.891,6.192-5.806,2.628,2.8L88.9,27.594l4.54-4.257L95.2,25.219l-6.192,5.806Z"/>
        <path id="Path_485" data-name="Path 485" d="M95.137,36.308l-2.724,1.364-1.161-2.316,2.724-1.365,2.767-6.622,1.427,2.849-1.766,4,4.323,1.1,1.376,2.745Z"/>
        <path id="Path_487" data-name="Path 487" d="M96.276,55.118l2.993-4.012-.06-1.084L96,50.2l-.143-2.588,8.473-.468.143,2.587-3.147.174.06,1.084,3.334,3.217.19,3.439L100.477,53.3l-4,5.423Z"/>
        <path id="Path_489" data-name="Path 489" d="M97.676,68.409a1.539,1.539,0,0,1-1.864.962l-1.7-.377.562-2.53,1.265.28c.706.157.923-.118,1.108-.95l.837-3.773-2.12-.47.564-2.542,8.288,1.839-1.478,6.658c-.557,2.508-1.313,3.273-3.467,2.8-1.368-.3-1.976-.8-2-1.89m3.421-1.454.893-4.024-2.029-.45-.894,4.025c-.156.707.106.981.892,1.155.638.142.993-.055,1.137-.7"/>
        <path id="Path_491" data-name="Path 491" d="M93.839,69.67l1.841.963,1.054,7.377,2.7-5.162,1.821.953-4.461,8.524-1.82-.952L93.9,74.027l-2.853,5.45-1.841-.963Z"/>
        <path id="Path_493" data-name="Path 493" d="M86.724,85.88l-2.242-2.063,1.755-1.906,2.241,2.062,7.172.24-2.158,2.345-4.371-.232.5,4.431-2.08,2.259Z"/>
        <path id="Path_495" data-name="Path 495" d="M82.781,97.121l.944,1.489L81.9,99.767l-.945-1.489Zm-1.544-9.958,1.113,1.756-2.776,6.917L84.5,92.717l1.1,1.735L77.469,99.6l-1.1-1.736,2.746-6.9-5.2,3.3L72.8,92.513l8.432-5.347"/>
      </g>
    </g>
  </g>
</svg>
